<?xml version="1.0" encoding="utf-8"?>
<!-- Svg Vector Icons : http://www.onlinewebfonts.com/icon -->
<!DOCTYPE svg PUBLIC "-//W3C//DTD SVG 1.1//EN" "http://www.w3.org/Graphics/SVG/1.1/DTD/svg11.dtd">
<svg version="1.1" xmlns="http://www.w3.org/2000/svg" xmlns:xlink="http://www.w3.org/1999/xlink" x="0px" y="0px" viewBox="0 0 256 256" enable-background="new 0 0 256 256" xml:space="preserve">
<metadata> Svg Vector Icons : http://www.onlinewebfonts.com/icon </metadata>
<g><g><g><path fill="#000000" d="M238.6,213.9V48.6H172V32.1H84v16.5H17.4v165.2H10v10.1h7.4h93.8h33.6h93.8h7.3v-10.1H238.6z M101.1,213.9H27.4V58.7h73.7V213.9z M144.8,213.9h-33.6v-17.5h33.6L144.8,213.9L144.8,213.9z M144.8,51.7h-11.6v16h11.6v9.8h-11.6v16h11.6v9.8h-11.6v16h11.6v9.8h-11.6v16h11.6v9.8h-11.6v16h11.6V187h-33.6V171h11.6v-16h-11.6v-9.8h11.6v-16h-11.6v-9.8h11.6v-16h-11.6v-9.8h11.6v-16h-11.6v-9.8h11.6v-16h-11.6v-3.1H93.5v-7.1h69.1v7.1h-17.7L144.8,51.7L144.8,51.7z M228.6,213.9h-73.7V58.7h73.7V213.9z"/><path fill="#000000" d="M164.6 69.6h21.5v21.5h-21.5z"/><path fill="#000000" d="M197.3 69.6h21.5v21.5h-21.5z"/><path fill="#000000" d="M164.6 97.2h21.5v21.5h-21.5z"/><path fill="#000000" d="M197.3 97.2h21.5v21.5h-21.5z"/><path fill="#000000" d="M164.6 124.7h21.5v21.5h-21.5z"/><path fill="#000000" d="M197.3 124.7h21.5v21.5h-21.5z"/><path fill="#000000" d="M164.6 152.2h21.5v21.5h-21.5z"/><path fill="#000000" d="M197.3 152.2h21.5v21.5h-21.5z"/><path fill="#000000" d="M164.6 179.8h21.5v21.5h-21.5z"/><path fill="#000000" d="M197.3 179.8h21.5v21.5h-21.5z"/><path fill="#000000" d="M37.2 69.6h21.5v21.5h-21.5z"/><path fill="#000000" d="M69.9 69.6h21.5v21.5h-21.5z"/><path fill="#000000" d="M37.2 97.2h21.5v21.5h-21.5z"/><path fill="#000000" d="M69.9 97.2h21.5v21.5h-21.5z"/><path fill="#000000" d="M37.2 124.7h21.5v21.5h-21.5z"/><path fill="#000000" d="M69.9 124.7h21.5v21.5h-21.5z"/><path fill="#000000" d="M37.2 152.2h21.5v21.5h-21.5z"/><path fill="#000000" d="M69.9 152.2h21.5v21.5h-21.5z"/><path fill="#000000" d="M37.2 179.8h21.5v21.5h-21.5z"/><path fill="#000000" d="M69.9 179.8h21.5v21.5h-21.5z"/></g><g></g><g></g><g></g><g></g><g></g><g></g><g></g><g></g><g></g><g></g><g></g><g></g><g></g><g></g><g></g></g></g>
</svg>