<?xml version="1.0" encoding="utf-8"?>
<!-- Svg Vector Icons : http://www.onlinewebfonts.com/icon -->
<!DOCTYPE svg PUBLIC "-//W3C//DTD SVG 1.1//EN" "http://www.w3.org/Graphics/SVG/1.1/DTD/svg11.dtd">
<svg version="1.1" xmlns="http://www.w3.org/2000/svg" xmlns:xlink="http://www.w3.org/1999/xlink" x="0px" y="0px" viewBox="0 0 256 256" enable-background="new 0 0 256 256" xml:space="preserve">
<metadata> Svg Vector Icons : http://www.onlinewebfonts.com/icon </metadata>
<g><g><g><path fill="#000000" d="M35.5,10.8c-4.7,1.2-10.2,4-14.3,7.3c-4.4,3.5-10.2,10.4-11,13.2c-0.6,1.8,0,8,2.8,32.1c1.9,16.4,3.4,30.3,3.4,30.9s0.3,1,0.7,1c0.3,0,6.4-2.1,13.5-4.6c7.1-2.5,13.2-4.6,13.5-4.6c0.3,0,2.7,4.2,5.3,9.4c2.6,5.2,4.8,9.5,4.9,9.7c0.1,0.1,1.4-0.1,2.8-0.5c1.4-0.4,2.6-0.7,2.8-0.6c0.1,0.1,10.8,31.7,23.7,70.1c12.9,38.3,23.9,70.3,24.4,70.8c1.4,1.7,5.1,1.5,6.8-0.3c0.7-0.8,1.4-2,1.4-2.8c0-0.7-10.5-32.6-23.4-70.9c-12.9-38.3-23.3-69.9-23.1-70.4c0.1-0.4,1.2-1,2.2-1.2c1-0.2,2-0.7,2.2-1.1c0.1-0.4-0.6-5.5-1.5-11.2c-1-5.8-1.6-10.6-1.4-10.8c0.2-0.2,6.6-2.5,14.2-5.2c7.5-2.7,13.6-5,13.5-5.2c-0.1-0.2-8.1-11.9-17.7-26c-19.3-28.3-18.2-27.1-26.5-29C49.6,9.6,40,9.6,35.5,10.8z M52.4,20.3c1.7,0.3,3.4,0.8,3.8,1c0.7,0.4,26.6,38,27.1,39.3c0.2,0.6-7.3,3.6-19.6,7.8c-4.2,1.5-4.1,0.7-2,12.4c2,11.1,2,11.2-0.4,12c-1,0.4-2,0.6-2,0.6c-0.1-0.1-2.3-4.5-4.9-9.7c-2.6-5.2-4.9-9.6-4.9-9.7c-0.1-0.1-5.5,1.7-12.1,4.1c-6.5,2.3-12,4.2-12.1,4.1c-0.2-0.2-5.6-45.7-5.7-47.5c0-0.4,2-2.9,4.4-5.4C32.2,20.5,40.2,18,52.4,20.3z"/><path fill="#000000" d="M149,23.2c-2.6,1.4-4.5,3.1-6.2,5.8c-0.8,1.3-2,2.3-2.5,2.3s-3.6,1.2-6.6,2.7c-9.2,4.5-16.3,11.9-21.6,22.6c-1.8,3.6-2.6,4.8-3.6,4.8c-1.7,0-2.6,0.7-3.3,2.6c-1.2,3.1-0.8,4.3,2.5,7.6l3.1,3.2l-2.5,2.7c-3.5,3.8-4.7,7.3-4.4,12.9c0.3,5.7,2.5,9.6,7,12.6c2.8,1.9,3.2,2.5,5,7.4c5.4,15,9.7,22.6,17.1,30c6.5,6.5,9.4,7.7,19.7,8.1c12.2,0.4,17.8-1.7,24.9-9.5c5.9-6.6,11.1-16.4,15.8-29.5c1.4-4.1,2.1-5.2,3.4-5.8c3-1.2,6.5-5.7,7.6-9.5c1.8-6.3,0.2-12.7-4.5-17.5l-2.1-2.2l3.4-2.6c2.7-2.1,3.4-3,3.4-4.4c0-2.8-1-4.6-3.1-5.5c-1.5-0.6-2.5-1.8-4.1-5.2c-5.7-11.4-14.4-19.9-24.6-24.2c-1.7-0.7-3.6-1.4-4.1-1.4c-0.6,0-1.4-0.7-2-1.7c-1.7-2.8-4.1-5.1-6.5-6.3C157.4,21.8,151.6,21.7,149,23.2z M157.7,33.9c0.6,1,0.8,5.2,0.8,13.3V59h4.6h4.6v-8.9c0-4.9,0.2-8.9,0.4-8.9c0.2,0,2,0.9,4.1,2c7.1,3.8,13,10.5,17.6,20.1c1,2.2,1.8,4,1.7,4.1c-0.1,0.1-2.9,2.3-6.3,5.1l-6.2,5h-25.7h-25.7l-5.1-4.9l-5-4.8l1.8-4.2c2.5-5.8,7.1-12.5,10.9-15.9c2.8-2.4,9.4-6.5,10.6-6.5c0.2,0,0.4,4,0.4,8.9V59h4.6h4.6l0.1-11.6c0.1-6.3,0.2-12.2,0.5-13C151.9,31.2,156.2,30.9,157.7,33.9z M120.1,83.7c0.6,0.7,2.2,1.8,3.4,2.5c2.2,1.1,4,1.2,29.7,1.2c29.5,0,29.4,0,33.3-3.3c2.5-2.1,3.9-2.1,6.3-0.1c4.5,3.8,2.6,11.1-2.9,11.9l-2.6,0.4l-2.8,8.3c-6.3,19.1-14.8,31.8-22.6,33.9c-4.1,1.1-15,0.4-17.9-1.1c-7-3.6-14-15.2-20-32.8l-2.8-8.3l-2.4-0.4c-3.4-0.6-5.2-2.8-5.2-6.8c0-2.6,0.3-3.4,1.8-4.9C117.5,82.1,118.5,82,120.1,83.7z"/><path fill="#000000" d="M127.8,151.6c-3.6,0.9-8.6,2.2-11.1,3.1c-5,1.8-17.3,7.6-19.6,9.4l-1.4,1l1.6,4.7l1.5,4.7l3.2-2c1.8-1.1,4.7-2.8,6.5-3.7l3.2-1.6v18.5c0,18.3,0,18.5-1.3,18.5c-0.8,0-1.2,0.3-1,0.7c0.2,0.4,0.9,2.6,1.7,4.9l1.5,4.2h45.7H204v10.8v10.8H162h-42l0.8,3.1c0.5,2,0.6,3.7,0.2,4.9l-0.6,1.8h62.8H246l-0.3-17.1c-0.3-19.9-0.8-22.5-6.3-33.7c-3.9-8-8-13.7-14.6-20.1c-12.1-11.8-31.3-21.3-48.1-23.8l-3.6-0.6l-7.3,11c-6.2,9.4-7.6,11.8-9.3,17.1c-1.1,3.4-2.2,6-2.5,5.7c-0.2-0.2-1.3-3.1-2.3-6.3c-1.6-4.8-3.1-7.7-9.2-16.7c-3.9-6-7.4-10.9-7.8-10.9C134.5,150.1,131.3,150.8,127.8,151.6z M136.3,169c4.9,7.4,5.4,8.4,9.3,20.2l4.1,12.3h4.8h4.8l4.2-12.5c3.9-11.9,4.4-13,9.2-20.2c3.1-4.7,5.4-7.6,6-7.5c0.6,0,2.6,0.5,4.7,1l3.7,1l0.2,20.5l0.1,20.4h-32.9h-32.9l0.1-20.4l0.2-20.4l3.4-1.1C130.9,160.5,130.6,160.3,136.3,169z M209.3,174.4c8.9,6.3,16,14.3,20.7,23.4c4.6,8.9,5.5,12.9,5.8,26.2l0.3,11.6h-11.4h-11.4v-15.7v-15.7h-8h-8v-18.5v-18.5l4.2,2.3C203.7,170.7,207.3,173,209.3,174.4z"/><path fill="#000000" d="M75.9,184.4c-4.6,6.3-8.7,15.1-10.6,22.6c-1.5,5.7-1.7,7.4-1.9,22.3L63,245.4h19.7h19.7l-3.1-9.4l-3.1-9.4l-0.2,4.4l-0.2,4.5H84.4H73v-9.1c0-5,0.3-10.8,0.7-12.8c1.2-7.2,4.5-15.4,8.4-21.3l1.6-2.3l-1.7-5.2c-0.9-2.8-1.9-5.2-2.2-5.2C79.6,179.6,77.8,181.8,75.9,184.4z"/></g></g></g>
</svg>